<svg width="65" height="23" viewBox="0 0 65 23" fill="none" xmlns="http://www.w3.org/2000/svg">
<path d="M19.8147 12.1695C19.8147 6.37172 15.6647 1.66283 9.90734 1.66283C4.14998 1.66283 0 6.37172 0 12.1695C0 17.9674 4.14998 22.6468 9.90734 22.6468C12.1869 22.6468 14.2327 21.9111 15.84 20.675L18.1488 23L19.6685 21.499L17.3598 19.2035C18.9087 17.3199 19.8147 14.8477 19.8147 12.1695ZM9.90734 20.5573C5.28976 20.5573 2.16266 16.7901 2.16266 12.1695C2.16266 7.51951 5.28976 3.7524 9.90734 3.7524C14.5249 3.7524 17.652 7.51951 17.652 12.1695C17.652 14.2591 17.0091 16.2015 15.8693 17.6731L13.5897 15.3775L12.0992 16.8784L14.3496 19.1446C13.1221 20.0569 11.6316 20.5573 9.90734 20.5573Z" fill="#0085FF"/>
<path d="M31.3655 6.41587V14.0678C31.3655 17.2169 29.7873 18.6884 27.6246 18.6884C25.3451 18.6884 24.0592 17.3346 24.0592 14.2444C24.0592 12.1254 24.0592 6.41587 24.0592 6.41587H21.9257C21.9257 6.41587 21.9257 9.53551 21.9257 14.2444C21.9257 19.4536 24.5852 20.8369 27.3616 20.8369C29.0859 20.8369 30.401 20.1011 31.3655 18.9533V20.6014H33.4697V6.41587H31.3655Z" fill="#0085FF"/>
<path d="M43.4355 6.20985C41.4189 6.20985 39.87 7.03391 38.7887 8.35829V0H36.6845V20.6014H38.7887V18.6884C39.87 20.0128 41.4189 20.8074 43.4355 20.8074C47.4685 20.8074 50.0404 17.5701 50.0404 13.5381C50.0404 9.47665 47.4685 6.20985 43.4355 6.20985ZM43.4355 18.7473C40.5422 18.7473 38.8763 16.4517 38.8763 13.5381C38.8763 10.6244 40.5422 8.26999 43.4355 8.26999C46.3288 8.26999 47.9069 10.6244 47.9069 13.5381C47.9069 16.4517 46.3288 18.7473 43.4355 18.7473Z" fill="#0085FF"/>
<path d="M58.6289 6.20985C54.6251 6.20985 51.9363 9.47665 51.9363 13.5381C51.9363 17.5701 54.8004 20.8074 58.8043 20.8074C61.3761 20.8074 63.3634 19.5419 64.5324 17.5406L62.6912 16.6283C61.8437 17.9527 60.5578 18.7473 58.8043 18.7473C56.174 18.7473 54.4205 16.8343 54.1282 14.2738H64.9708C64.9708 14.0384 65 13.7735 65 13.5381C65 9.47665 62.662 6.20985 58.6289 6.20985ZM58.6289 8.26999C61.0546 8.26999 62.4282 9.91811 62.8373 12.1548H54.2159C54.6543 9.91811 56.2324 8.26999 58.6289 8.26999Z" fill="#0085FF"/>
<path d="M13.062 15.9109L15.0419 17.8919L10.3847 22.6122L8.4048 20.6312L13.062 15.9109Z" fill="#0085FF"/>
<path d="M13.6267 17.8423L15.6338 19.7953L13.9849 21.5138L11.9778 19.5608L13.6267 17.8423Z" fill="#0085FF"/>
</svg>
